<?xml version="1.0" standalone="no"?>
<!DOCTYPE svg PUBLIC "-//W3C//DTD SVG 20010904//EN"
 "http://www.w3.org/TR/2001/REC-SVG-20010904/DTD/svg10.dtd">
<svg version="1.0" xmlns="http://www.w3.org/2000/svg"
 width="201.000000pt" height="157.000000pt" viewBox="0 0 201.000000 157.000000"
 preserveAspectRatio="xMidYMid meet">
<metadata>
Created by potrace 1.13, written by Peter Selinger 2001-2015
</metadata>
<g transform="translate(0.000000,157.000000) scale(0.100000,-0.100000)"
fill="#000000" stroke="none">
<path d="M887 1178 c-21 -18 -129 -214 -326 -585 -12 -23 -11 -23 47 -23 l59
0 23 51 c14 28 37 62 53 75 75 63 290 162 434 199 52 14 98 27 103 30 13 8 42
76 35 83 -5 5 -92 -14 -192 -44 -19 -5 -26 3 -60 67 -21 41 -41 86 -45 100
-18 60 -88 86 -131 47z m97 -190 l37 -67 -73 -37 c-39 -20 -89 -47 -111 -61
-21 -13 -40 -23 -42 -21 -2 2 28 63 67 137 38 73 73 129 77 124 5 -4 24 -38
45 -75z"/>
<path d="M1373 909 c-99 -15 -293 -66 -348 -94 -37 -17 -58 -36 -74 -65 -13
-23 -21 -43 -20 -45 2 -2 31 8 64 21 82 34 231 71 342 85 98 12 108 19 133 84
11 29 9 29 -97 14z"/>
<path d="M1370 783 c-93 -9 -234 -34 -263 -47 -29 -12 -77 -79 -65 -91 2 -3
20 0 39 5 63 19 259 40 364 40 l104 0 25 42 c14 23 23 45 20 50 -5 8 -152 9
-224 1z"/>
</g>
</svg>
